<?xml version="1.0" standalone="no"?>
<!DOCTYPE svg PUBLIC "-//W3C//DTD SVG 20010904//EN"
 "http://www.w3.org/TR/2001/REC-SVG-20010904/DTD/svg10.dtd">
<svg version="1.0" xmlns="http://www.w3.org/2000/svg"
 width="1024.000000pt" height="1024.000000pt" viewBox="0 0 1024.000000 1024.000000"
 preserveAspectRatio="xMidYMid meet">

<g transform="translate(0.000000,1024.000000) scale(0.100000,-0.100000)"
fill="#000000" stroke="none">
<path d="M4970 8933 c-199 -31 -287 -69 -320 -138 -20 -42 -21 -57 -18 -242 4
-230 8 -244 96 -303 l52 -35 -3 -110 -2 -109 -75 -26 c-167 -56 -226 -115
-244 -241 l-7 -47 -77 -30 c-108 -43 -676 -296 -862 -384 -220 -104 -267 -132
-339 -206 l-64 -65 -51 22 c-270 118 -558 167 -931 158 -241 -6 -404 -24 -564
-63 -431 -106 -702 -290 -787 -535 -17 -47 -19 -80 -16 -259 4 -325 25 -421
116 -529 40 -48 172 -153 226 -181 73 -37 268 -109 350 -128 285 -69 788 -76
1067 -16 43 10 91 18 107 18 l30 1 -1 -300 c-2 -471 5 -505 141 -703 93 -134
136 -170 251 -207 91 -30 99 -37 110 -100 11 -59 80 -220 116 -270 65 -90 142
-125 455 -209 132 -35 280 -74 331 -86 63 -15 94 -27 97 -39 3 -9 12 -48 21
-88 30 -145 87 -216 240 -296 79 -42 79 -42 91 -94 13 -61 20 -71 94 -128 l55
-42 44 -224 c68 -345 87 -420 121 -461 38 -46 86 -68 148 -68 104 0 148 62
182 260 56 320 97 503 116 513 11 6 40 31 66 56 34 34 48 57 53 86 13 79 14
81 57 100 64 28 149 88 189 132 20 22 46 65 59 97 27 64 14 61 135 36 172 -35
324 40 402 196 32 66 37 87 41 162 5 105 -14 189 -64 280 -19 34 -34 71 -34
81 0 12 25 36 68 65 233 160 320 250 358 371 18 57 27 64 53 41 31 -27 207
-123 281 -153 272 -112 585 -170 970 -180 482 -13 839 56 1140 219 78 42 216
145 261 194 47 51 106 148 122 199 23 73 26 105 33 360 10 372 -11 458 -145
594 -136 138 -284 222 -546 311 -522 177 -1144 190 -1663 35 -84 -25 -153 -45
-156 -45 -2 0 -1 53 1 118 l5 117 58 52 c73 66 90 107 90 218 0 117 -18 326
-36 415 -27 137 -116 280 -212 341 -89 57 -512 174 -807 224 -88 15 -163 29
-167 32 -5 2 -8 20 -8 39 0 42 -20 84 -68 141 -40 47 -97 81 -194 113 l-68 23
0 103 0 103 45 32 c30 21 54 51 71 84 24 51 25 55 19 216 -3 90 -10 180 -15
200 -36 135 -186 190 -509 188 -86 -1 -167 -4 -181 -6z m355 -88 c28 -3 81
-15 118 -26 53 -16 67 -24 63 -36 -4 -11 -2 -14 9 -10 17 7 45 -18 45 -39 0
-8 -7 -14 -15 -14 -8 0 -23 -4 -33 -9 -36 -20 -158 -63 -236 -84 -60 -16 -110
-22 -191 -22 l-110 0 -3 -157 c-2 -142 -4 -158 -20 -159 -13 0 -11 -3 6 -9 12
-5 22 -11 22 -14 0 -4 -6 -3 -60 8 l-25 5 3 166 c3 160 3 167 -17 172 -11 3
-23 13 -26 22 -6 18 -75 61 -99 61 -8 0 -17 -8 -19 -17 -3 -10 -5 -3 -6 15 -1
44 11 65 54 91 93 55 329 79 540 56z m-268 -900 c-2 -102 1 -127 13 -135 18
-11 5 -12 -39 -4 -24 5 -31 12 -31 30 0 12 -4 25 -9 28 -6 4 -5 21 1 43 7 25
6 43 -1 60 -7 14 -7 23 -1 23 6 0 10 12 9 28 0 24 -1 25 -9 7 -8 -18 -9 -17
-9 7 -1 25 1 26 29 18 23 -7 30 -5 30 6 0 8 4 14 10 14 5 0 8 -51 7 -125z
m-277 -59 c0 -3 -13 -11 -30 -20 -21 -10 -30 -11 -31 -3 0 8 -2 8 -6 0 -2 -7
-16 -13 -29 -13 -31 0 -31 -14 1 -28 14 -7 25 -7 25 -2 0 5 10 -1 23 -13 37
-35 67 -57 67 -50 0 3 10 -3 23 -14 42 -40 140 -64 266 -66 85 -2 121 -6 133
-17 13 -10 15 -16 5 -22 -8 -5 -4 -8 11 -8 12 0 21 3 21 8 -4 22 5 29 39 30
35 1 36 0 17 -15 -16 -12 -16 -14 -3 -10 10 3 20 2 23 -2 7 -12 -21 -18 -140
-30 -108 -12 -286 -11 -278 2 2 4 -3 7 -11 7 -9 0 -16 -4 -16 -10 0 -5 -8 -10
-17 -11 -15 0 -15 -2 2 -8 19 -7 18 -8 -5 -21 -14 -7 -26 -14 -28 -15 -1 -1 2
-14 8 -29 5 -15 12 -37 14 -49 3 -12 8 -32 12 -44 3 -13 2 -23 -2 -24 -5 0
-17 -2 -26 -4 -15 -3 -18 4 -18 36 0 22 -4 38 -8 35 -4 -2 -14 -1 -20 3 -10 6
-9 14 2 36 18 35 14 44 -19 40 -14 -1 -25 2 -25 6 0 5 7 9 16 9 11 0 14 5 9
18 -5 14 -4 15 6 5 17 -17 26 -16 26 2 0 8 -5 15 -11 15 -6 0 -5 5 2 12 9 9
18 9 37 0 31 -14 35 -15 35 -4 0 10 -67 32 -96 32 -11 0 -27 12 -36 27 -10 17
-42 38 -90 60 -83 36 -88 50 -35 96 38 33 157 73 157 53z m-1 -95 c-6 -2 -21
6 -33 19 l-21 21 32 -18 c18 -10 28 -20 22 -22z m151 -57 l35 -14 -35 6 c-19
3 -39 10 -44 15 -14 13 2 10 44 -7z m143 -31 c-7 -2 -19 -2 -25 0 -7 3 -2 5
12 5 14 0 19 -2 13 -5z m317 -13 c-14 -4 -34 -8 -45 -8 l-20 -1 20 9 c11 5 31
8 45 8 l25 0 -25 -8z m27 -16 c-3 -3 -12 -4 -19 -1 -8 3 -5 6 6 6 11 1 17 -2
13 -5z m41 -9 c-10 -10 -98 -33 -98 -25 0 4 17 12 38 18 42 11 68 14 60 7z
m-1142 -143 c-2 -4 -28 -19 -56 -32 -33 -15 -46 -26 -38 -31 7 -4 15 -5 18 0
6 8 90 41 105 41 6 0 -55 -33 -135 -73 -80 -41 -192 -98 -250 -128 -58 -30
-139 -69 -180 -87 -41 -19 -83 -38 -92 -43 -10 -5 -46 -18 -80 -30 -95 -32
-166 -76 -193 -119 -13 -21 -29 -41 -34 -45 -12 -7 -71 -186 -71 -215 0 -11
-4 -20 -9 -20 -6 0 -1 31 10 70 21 76 25 115 10 91 -7 -11 -10 -9 -13 9 -2 16
-12 26 -31 31 -31 8 -43 -6 -34 -42 4 -16 3 -18 -8 -9 -7 6 -19 8 -28 4 -12
-4 -14 -1 -10 17 5 16 3 20 -6 14 -10 -6 -11 -3 -2 14 7 11 20 21 31 21 11 0
25 10 31 23 11 20 11 21 -4 8 -10 -7 -17 -9 -17 -3 0 38 208 158 455 262 145
61 544 239 585 261 38 20 54 24 46 11z m2062 -69 c39 -13 77 -21 84 -17 7 5 8
3 3 -6 -6 -10 -3 -12 13 -8 12 4 20 2 16 -3 -5 -9 17 -13 45 -10 8 2 10 -3 6
-11 -6 -10 -5 -10 4 -2 14 12 90 2 119 -16 14 -9 12 -10 -8 -4 -19 5 -22 3
-14 -5 6 -7 32 -12 58 -13 31 0 49 -6 55 -16 5 -9 19 -16 31 -17 20 -2 19 0
-7 21 -15 13 -23 23 -18 24 6 0 23 -11 40 -24 25 -20 28 -26 16 -40 -17 -20
-47 -21 -55 0 -3 9 -13 13 -23 11 -55 -15 -92 -17 -105 -4 -48 49 -171 103
-331 148 -73 20 -88 27 -52 22 28 -3 83 -17 123 -30z m-1948 9 c0 -4 -12 -9
-27 -10 -28 -2 -136 -50 -351 -154 -68 -33 -125 -58 -128 -56 -4 4 50 32 196
101 257 121 310 141 310 119z m2315 -90 c-3 -3 -11 0 -18 7 -9 10 -8 11 6 5
10 -3 15 -9 12 -12z m-270 -14 c42 -16 115 -67 115 -80 0 -7 -5 -7 -14 1 -11
9 -25 9 -55 1 -23 -6 -41 -14 -41 -18 0 -5 -17 -14 -37 -21 -21 -8 -54 -25
-73 -37 -19 -13 -38 -24 -43 -24 -8 0 -82 -41 -391 -216 -38 -21 -80 -47 -95
-56 -31 -20 -63 -22 -79 -6 -20 20 -13 -4 8 -27 l19 -20 -57 -30 c-31 -16 -80
-46 -108 -67 -28 -21 -54 -38 -57 -38 -18 0 -107 -64 -112 -80 -10 -31 -85
-100 -106 -97 -16 2 -24 -10 -39 -53 -11 -30 -19 -73 -20 -94 0 -31 -3 -37
-12 -28 -20 20 -31 14 -24 -13 5 -20 3 -25 -13 -25 -15 0 -21 9 -26 40 -14 86
28 197 111 289 44 48 57 57 194 119 47 21 100 52 119 68 l35 29 -30 6 c-36 7
-201 1 -307 -11 -76 -9 -246 -58 -247 -72 0 -9 115 -21 193 -20 37 1 67 -1 67
-4 0 -3 -19 -29 -43 -57 -75 -89 -114 -150 -131 -204 -16 -48 -32 -64 -48 -47
-10 9 13 78 30 93 15 12 14 13 -10 9 -19 -4 -25 -1 -21 9 3 7 0 13 -6 13 -6 0
-11 -4 -11 -10 0 -5 -13 -10 -30 -10 -16 0 -30 -4 -30 -10 0 -5 -5 -10 -12
-10 -9 0 -9 3 -1 11 6 6 9 19 6 29 -4 15 -8 16 -29 6 -26 -12 -31 -31 -11 -40
6 -4 1 -4 -13 -1 -14 3 -32 7 -40 9 -8 2 -16 13 -18 24 -3 19 -10 22 -47 22
-24 0 -47 -5 -50 -10 -4 -6 -11 -8 -16 -4 -5 3 -7 10 -4 15 4 5 1 9 -4 9 -6 0
-11 12 -11 26 0 19 -4 25 -15 21 -8 -4 -17 -2 -20 3 -4 6 -15 10 -27 10 -16 0
-19 -5 -15 -25 3 -20 1 -25 -12 -23 -10 2 -16 13 -16 28 0 25 1 25 78 24 53 0
71 3 56 8 -31 12 -160 17 -153 7 3 -5 -7 -20 -21 -33 -30 -27 -59 -24 -52 5 3
11 1 19 -4 19 -5 0 -9 7 -9 15 0 15 -46 32 -57 21 -4 -3 3 -6 15 -6 12 0 22
-4 22 -9 0 -4 -11 -6 -25 -3 -20 3 -24 1 -19 -11 3 -10 -2 -20 -15 -26 -28
-15 -46 -14 -33 2 17 21 -1 42 -40 46 -37 2 -38 2 -34 -29 2 -22 -2 -33 -15
-40 -24 -13 -52 -13 -43 1 5 8 1 8 -14 0 -23 -12 -44 -15 -26 -3 16 10 22 54
7 59 -6 2 -14 -5 -17 -15 -4 -13 -20 -22 -43 -27 -21 -4 -42 -13 -48 -22 -12
-15 -13 -11 -18 57 -2 26 -4 28 -14 14 -15 -20 -90 -20 -110 0 -5 4 -2 6 6 4
7 -1 16 3 18 10 3 6 0 12 -6 12 -6 0 -11 13 -11 29 0 23 -5 31 -22 34 -15 3
-8 5 17 7 39 2 39 3 10 10 -16 4 -66 8 -110 7 -44 0 -70 -2 -57 -4 17 -3 22
-11 21 -31 -1 -15 -3 -20 -6 -11 -5 22 -74 43 -113 36 -37 -8 -32 8 6 17 15 4
35 17 45 30 21 27 142 110 181 125 22 8 41 4 108 -24 45 -19 87 -38 93 -43 7
-6 44 -13 82 -17 39 -4 84 -9 100 -11 85 -12 130 -14 105 -4 -18 6 -6 7 40 3
78 -7 90 -13 29 -14 -41 -1 -42 -2 -14 -9 48 -12 73 -11 89 5 17 18 56 20 56
3 0 -6 3 -9 6 -5 3 3 17 2 30 -4 19 -6 26 -5 30 6 5 13 19 18 82 30 13 2 37 8
55 14 47 14 164 41 174 40 15 -1 -71 -30 -122 -40 -88 -19 -159 -45 -207 -78
-27 -18 -48 -37 -48 -42 0 -5 15 -9 33 -10 27 0 29 -2 12 -9 -15 -6 -16 -9 -4
-9 9 -1 31 7 50 16 19 10 55 18 82 18 34 0 46 4 42 13 -5 15 -2 15 29 1 34
-16 100 -3 92 17 -3 8 -2 13 2 10 5 -3 22 3 38 12 31 19 89 18 78 0 -5 -8 -1
-9 12 -4 56 23 120 35 214 42 58 4 109 7 113 6 5 -2 6 1 3 6 -9 15 33 52 50
45 13 -5 13 -7 2 -15 -8 -5 3 -6 28 -2 25 4 50 1 63 -6 19 -10 23 -9 28 8 4
16 13 20 52 20 45 0 101 21 161 62 14 9 41 23 60 30 19 8 71 35 115 61 44 26
134 74 200 107 66 33 128 66 138 74 18 13 17 15 -10 45 -16 17 -38 33 -48 36
-11 4 3 4 30 1 28 -3 64 -10 80 -16z m-1682 -55 c-7 -2 -19 -2 -25 0 -7 3 -2
5 12 5 14 0 19 -2 13 -5z m92 -12 l40 -9 -35 0 c-19 0 -46 4 -60 8 -20 6 -21
8 -5 8 11 1 38 -3 60 -7z m-338 -17 c-3 -3 -12 -4 -19 -1 -8 3 -5 6 6 6 11 1
17 -2 13 -5z m2263 -2 c0 -4 -15 -16 -32 -26 l-33 -17 30 25 c33 29 35 30 35
18z m-2960 -65 c-14 -6 -31 -17 -38 -24 -7 -7 -19 -10 -26 -7 -8 3 -17 0 -22
-7 -5 -8 -3 -10 6 -4 7 4 16 2 21 -6 4 -8 16 -14 26 -14 13 0 18 -7 16 -25 -1
-21 4 -26 24 -28 40 -3 76 -42 39 -42 -8 0 -18 -5 -22 -11 -4 -8 1 -9 17 -4
13 4 27 12 31 18 9 15 128 23 128 8 0 -6 10 -11 23 -12 21 0 21 -1 2 -9 -11
-4 -37 -6 -57 -3 -20 3 -49 2 -63 -1 -33 -8 -108 -77 -147 -134 -30 -44 -31
-44 -79 -40 -40 4 -47 3 -38 -8 9 -11 7 -14 -10 -14 -14 0 -23 8 -27 25 -5 21
-13 25 -43 27 -75 3 -103 -4 -125 -30 -10 -13 -29 -27 -41 -32 -15 -6 -25 -20
-29 -44 -8 -43 -22 -47 -29 -8 -6 33 46 172 83 220 15 20 43 39 74 50 31 11
69 36 103 70 33 31 63 52 76 52 13 0 29 6 35 12 13 13 76 36 102 36 8 0 4 -5
-10 -11z m943 -14 c-7 -2 -21 -2 -30 0 -10 3 -4 5 12 5 17 0 24 -2 18 -5z m44
-9 c-3 -3 -12 -4 -19 -1 -8 3 -5 6 6 6 11 1 17 -2 13 -5z m145 -21 c43 -3 78
-10 78 -15 0 -5 -12 -7 -27 -4 -16 2 -53 7 -83 11 -30 3 -62 11 -70 16 -12 9
-11 10 5 4 10 -3 54 -9 97 -12z m1163 7 c3 -5 -1 -10 -9 -10 -9 0 -16 5 -16
10 0 6 4 10 9 10 6 0 13 -4 16 -10z m-698 -6 c-3 -3 -12 -4 -19 -1 -8 3 -5 6
6 6 11 1 17 -2 13 -5z m-1455 -44 c3 -16 1 -30 -4 -30 -4 0 -8 14 -8 30 0 17
2 30 4 30 2 0 6 -13 8 -30z m1121 23 c-7 -2 -21 -2 -30 0 -10 3 -4 5 12 5 17
0 24 -2 18 -5z m60 0 c-7 -2 -21 -2 -30 0 -10 3 -4 5 12 5 17 0 24 -2 18 -5z
m-2621 -67 c54 -9 101 -16 105 -16 3 0 4 -2 1 -5 -2 -3 -65 4 -139 15 -143 21
-427 28 -399 10 13 -8 13 -10 -1 -10 -9 0 -19 7 -22 15 -11 28 254 23 455 -9z
m-494 17 c-15 -2 -42 -2 -60 0 -18 2 -6 4 27 4 33 0 48 -2 33 -4z m-143 -8
c-20 -8 -249 -35 -253 -30 -3 3 -1 5 4 6 5 0 52 6 104 13 92 13 166 19 145 11z
m268 -34 c12 0 16 3 10 6 -27 10 -11 19 36 18 39 0 55 -5 71 -23 12 -13 20
-25 19 -27 -2 -1 -42 1 -89 5 -47 4 -89 5 -94 2 -5 -3 -6 0 -2 6 4 7 2 12 -3
12 -6 0 -11 -4 -11 -10 0 -6 -30 -10 -72 -9 -60 1 -68 2 -43 10 17 5 47 8 67
7 20 -1 47 6 60 14 19 13 24 13 26 2 2 -8 13 -14 25 -13z m151 20 c3 -5 -1
-11 -9 -14 -9 -4 -12 -1 -8 9 6 16 10 17 17 5z m135 -27 c10 -9 -35 -3 -49 6
-11 8 -7 9 15 4 17 -4 32 -8 34 -10z m-826 -1 c-7 -2 -19 -2 -25 0 -7 3 -2 5
12 5 14 0 19 -2 13 -5z m1064 1 c-3 -3 -12 -4 -19 -1 -8 3 -5 6 6 6 11 1 17
-2 13 -5z m-1108 -8 c-7 -7 -131 -37 -136 -33 -2 3 22 11 54 20 59 15 90 20
82 13z m1148 -2 c-3 -3 -12 -4 -19 -1 -8 3 -5 6 6 6 11 1 17 -2 13 -5z m-794
-11 c-13 -2 -35 -2 -50 0 -16 2 -5 4 22 4 28 0 40 -2 28 -4z m467 -3 c12 -8
11 -10 -5 -9 -11 1 -33 5 -50 9 l-30 8 35 1 c19 0 42 -4 50 -9z m367 4 c-3 -3
-12 -4 -19 -1 -8 3 -5 6 6 6 11 1 17 -2 13 -5z m-918 -8 c-2 -2 -35 -6 -74 -9
-42 -3 -58 -2 -40 3 30 8 122 13 114 6z m608 -2 c-3 -3 -12 -4 -19 -1 -8 3 -5
6 6 6 11 1 17 -2 13 -5z m288 -49 c11 -6 -21 -1 -144 20 -46 8 -95 15 -110 16
l-26 1 25 7 c21 6 225 -29 255 -44z m62 49 c-3 -3 -12 -4 -19 -1 -8 3 -5 6 6
6 11 1 17 -2 13 -5z m-1392 -24 c-27 -12 -43 -12 -25 0 8 5 22 9 30 9 10 0 8
-3 -5 -9z m278 3 c-7 -2 -19 -2 -25 0 -7 3 -2 5 12 5 14 0 19 -2 13 -5z m-56
-9 c-3 -3 -12 -4 -19 -1 -8 3 -5 6 6 6 11 1 17 -2 13 -5z m-373 -52 c-138 -60
-184 -87 -256 -151 -31 -28 -59 -51 -63 -51 -11 0 78 79 130 115 53 37 259
134 285 134 8 0 -35 -21 -96 -47z m303 32 c-3 -3 -12 -4 -19 -1 -8 3 -5 6 6 6
11 1 17 -2 13 -5z m-82 -24 c-27 -11 -57 -20 -65 -20 -18 1 79 38 100 39 8 0
-7 -9 -35 -19z m1345 0 c25 -10 38 -19 30 -19 -8 0 -35 9 -60 19 -25 10 -38
19 -30 19 8 0 35 -9 60 -19z m-1460 -40 c-19 -11 -39 -19 -45 -19 -5 0 6 8 25
19 19 11 40 19 45 19 6 0 -6 -8 -25 -19z m1546 4 c18 -14 18 -14 -6 -3 -31 14
-36 19 -24 19 6 0 19 -7 30 -16z m117 -9 c-7 -21 -12 -19 -10 4 0 11 5 18 9
15 4 -3 5 -11 1 -19z m110 -31 c-9 -21 -24 -70 -34 -109 -18 -74 -25 -62 -9
15 10 46 51 143 57 137 2 -2 -4 -21 -14 -43z m1968 32 c-7 -8 -27 -17 -46 -20
-21 -4 -35 -13 -35 -21 0 -10 -10 -15 -29 -15 -16 0 -36 -3 -45 -6 -9 -3 -16
-2 -16 4 0 6 37 24 83 41 94 34 104 36 88 17z m-2125 -37 c3 -6 -5 -3 -20 6
-14 10 -26 19 -26 22 0 7 39 -17 46 -28z m-1677 17 c-2 -2 -15 -9 -29 -15 -24
-11 -24 -11 -6 3 16 13 49 24 35 12z m2265 -38 c-10 -34 -23 -56 -24 -40 0 7
-5 10 -10 7 -6 -3 -8 -18 -5 -33 3 -15 3 -22 0 -16 -3 6 -17 9 -30 6 -41 -7
-24 52 23 81 39 24 55 22 46 -5z m-2364 -13 c0 -2 -13 -11 -30 -20 -38 -19
-40 -11 -2 9 31 17 32 18 32 11z m993 -22 c-7 -2 -19 -2 -25 0 -7 3 -2 5 12 5
14 0 19 -2 13 -5z m77 -24 c36 -22 50 -37 50 -54 -1 -5 -5 -2 -11 8 -6 9 -15
14 -21 11 -6 -4 -8 -3 -5 3 4 6 -12 20 -36 32 -23 12 -35 21 -27 21 8 0 31
-10 50 -21z m-428 -42 c-12 -13 -22 -31 -22 -40 0 -9 -4 -17 -10 -17 -5 0 -10
-7 -10 -15 0 -8 5 -15 10 -15 6 0 10 -6 10 -12 -1 -15 -40 29 -40 44 0 12 64
78 76 78 4 0 -2 -10 -14 -23z m-762 -1 c0 -2 -8 -10 -17 -17 -16 -13 -17 -12
-4 4 13 16 21 21 21 13z m2251 -27 c-5 -13 -10 -19 -10 -12 -1 15 10 45 15 40
3 -2 0 -15 -5 -28z m-77 -57 l-16 -72 -37 2 c-36 1 -36 1 -4 5 26 4 33 9 38
36 10 50 28 107 32 104 2 -2 -4 -36 -13 -75z m-2356 17 c-18 -27 -40 -80 -49
-117 -9 -37 -18 -57 -18 -45 -2 37 36 142 64 178 38 50 39 43 3 -16z m102 35
c0 -8 -4 -12 -10 -9 -5 3 -10 10 -10 16 0 5 5 9 10 9 6 0 10 -7 10 -16z m3411
-17 c-13 -13 -26 -3 -16 12 3 6 11 8 17 5 6 -4 6 -10 -1 -17z m-2111 -17 c-6
-11 -13 -20 -16 -20 -2 0 0 9 6 20 6 11 13 20 16 20 2 0 0 -9 -6 -20z m-1335
1 c10 -17 -12 -21 -25 -6 -10 12 -10 15 3 15 9 0 18 -4 22 -9z m45 -11 c-6
-11 -13 -20 -16 -20 -2 0 0 9 6 20 6 11 13 20 16 20 2 0 0 -9 -6 -20z m2067
-12 c-3 -7 -5 -2 -5 12 0 14 2 19 5 13 2 -7 2 -19 0 -25z m2538 12 c-3 -5 -16
-15 -28 -21 -21 -10 -21 -9 2 10 25 23 36 27 26 11z m-3720 -23 c0 -19 64 -26
159 -16 109 10 117 10 91 -1 -19 -8 -19 -9 3 -9 13 -1 22 5 22 14 0 8 5 15 11
15 5 0 7 -6 4 -12 -4 -7 -1 -6 7 3 7 9 29 16 48 17 l35 1 -25 -14 c-55 -32
-166 -59 -240 -59 -82 0 -134 10 -125 23 3 5 -1 11 -7 14 -10 3 -10 7 -1 19 7
8 11 18 8 21 -3 4 -2 4 3 1 4 -3 7 -11 7 -17z m1442 -19 c-3 -7 -5 -2 -5 12 0
14 2 19 5 13 2 -7 2 -19 0 -25z m-2406 -1 c-10 -9 -11 -8 -5 6 3 10 9 15 12
12 3 -3 0 -11 -7 -18z m2589 13 c0 -5 -4 -10 -9 -10 -6 0 -13 5 -16 10 -3 6 1
10 9 10 9 0 16 -4 16 -10z m630 6 c0 -3 -4 -8 -10 -11 -5 -3 -10 -1 -10 4 0 6
5 11 10 11 6 0 10 -2 10 -4z m60 0 c0 -3 -4 -8 -10 -11 -5 -3 -10 -1 -10 4 0
6 5 11 10 11 6 0 10 -2 10 -4z m-3229 -42 c-5 -16 -10 -21 -10 -12 -1 18 10
51 15 45 2 -1 -1 -16 -5 -33z m3399 22 c0 -6 -113 -67 -117 -62 -2 1 23 17 54
34 62 34 63 34 63 28z m-990 -42 c0 -2 -13 -4 -30 -4 -16 0 -30 4 -30 8 0 5
14 7 30 4 17 -2 30 -6 30 -8z m1380 3 c0 -2 -12 -14 -27 -28 l-28 -24 24 28
c23 25 31 32 31 24z m-1185 -33 c55 -8 183 -30 285 -49 102 -18 235 -41 295
-50 208 -32 590 -96 635 -107 67 -16 201 -85 235 -121 l30 -32 -30 27 c-37 32
-154 91 -221 111 -27 8 -169 34 -315 57 -452 71 -1079 178 -1094 185 -11 6 38
0 180 -21z m867 10 c-12 -8 -28 -13 -35 -11 -7 3 -1 9 13 15 37 16 47 14 22
-4z m105 -9 c0 -8 -4 -12 -8 -9 -4 2 -10 -2 -12 -8 -3 -7 -6 -3 -6 10 -1 12 5
22 12 22 8 0 14 -7 14 -15z m268 -43 c-26 -26 -39 -36 -29 -22 34 43 69 79 73
74 3 -3 -17 -26 -44 -52z m661 16 c-9 -12 -16 -19 -16 -15 0 11 24 47 28 42 2
-2 -3 -14 -12 -27z m-4609 -10 c-3 -7 -5 -2 -5 12 0 14 2 19 5 13 2 -7 2 -19
0 -25z m103 10 c0 -18 -2 -20 -9 -8 -6 8 -7 18 -5 22 9 14 14 9 14 -14z m3978
-3 c-3 -3 -9 2 -12 12 -6 14 -5 15 5 6 7 -7 10 -15 7 -18z m-248 -32 c-11 -17
-11 -17 -6 0 3 10 6 24 7 30 0 9 2 9 5 0 3 -7 0 -20 -6 -30z m-1369 5 c88 -12
107 -21 69 -33 -11 -4 -41 -24 -65 -45 -27 -23 -51 -37 -60 -34 -10 4 -13 2
-10 -7 3 -8 -6 -36 -20 -63 -14 -27 -25 -44 -25 -38 0 7 -12 12 -27 11 -25 0
-26 -1 -8 -9 11 -5 15 -9 9 -9 -6 -1 -20 -9 -32 -19 -20 -18 -20 -18 -1 -42
l19 -25 6 23 c4 12 10 22 14 22 5 0 11 6 13 13 2 6 3 -1 1 -17 -2 -16 -4 -39
-4 -52 0 -13 -4 -24 -10 -24 -5 0 -10 7 -10 15 0 8 -9 15 -19 15 -11 0 -22 6
-25 13 -5 10 -7 10 -12 0 -7 -16 -40 -17 -49 -3 -5 8 -11 8 -20 0 -11 -9 -19
-1 -40 34 -15 25 -24 51 -22 58 4 8 9 3 13 -12 l8 -25 6 30 6 30 72 -2 c112
-3 85 13 -43 26 l-116 11 -54 -35 c-69 -46 -125 -108 -125 -139 0 -13 -7 -40
-16 -61 -8 -21 -13 -43 -11 -50 3 -6 1 -18 -4 -26 -7 -11 -9 -10 -9 5 0 11 -3
16 -7 12 -5 -4 -11 -51 -14 -104 l-6 -97 -1 86 c-2 111 11 178 52 264 66 141
233 277 366 301 86 16 107 16 211 2z m1013 3 c3 -5 -8 -11 -24 -13 -32 -5 -42
7 -12 15 28 8 31 7 36 -2z m-3354 -36 c0 -5 -5 -3 -10 5 -5 8 -10 20 -10 25 0
6 5 3 10 -5 5 -8 10 -19 10 -25z m-153 -7 c-3 -7 -5 -2 -5 12 0 14 2 19 5 13
2 -7 2 -19 0 -25z m2763 -7 c63 -11 153 -27 200 -35 80 -15 160 -28 545 -91
236 -38 374 -63 425 -76 47 -13 120 -46 120 -54 0 -3 -13 1 -30 10 -38 19 -43
19 -31 -3 7 -14 6 -25 -4 -39 -13 -18 -12 -19 16 -15 27 4 29 2 29 -27 0 -21
-5 -31 -15 -31 -8 0 -15 -4 -15 -10 0 -5 -8 -6 -17 -3 -11 4 -12 8 -5 11 22 7
13 22 -14 22 -14 0 -23 -4 -19 -9 3 -6 -4 -15 -15 -21 -32 -17 -24 -51 31
-124 77 -102 89 -161 89 -443 0 -237 -3 -250 -47 -224 -16 9 -15 10 10 11 20
0 27 5 27 20 0 11 -4 20 -9 20 -18 0 -41 31 -40 53 1 20 2 20 9 -3 5 -16 8 22
8 102 0 127 -18 260 -42 307 -8 14 -16 42 -20 61 -7 41 -51 109 -92 143 -33
27 -96 50 -202 72 -89 18 -114 20 -92 4 12 -8 11 -9 -5 -6 -11 2 -39 -8 -63
-21 -24 -13 -45 -22 -49 -19 -3 3 10 12 28 20 69 30 96 78 66 118 -11 15 -17
15 -52 4 -21 -8 -51 -23 -66 -34 -35 -26 -38 -26 -195 4 -71 14 -154 29 -184
35 -140 26 -271 51 -339 65 -41 9 -81 14 -90 12 -11 -3 -9 -5 6 -6 31 -2 27
-41 -4 -41 -27 0 -31 16 -5 23 13 4 11 5 -5 6 -13 1 -23 7 -23 16 0 18 -42 36
-87 38 -18 0 -33 3 -33 4 0 6 101 105 133 131 15 12 31 21 35 18 5 -3 14 0 22
6 12 8 12 9 -2 4 -10 -3 -18 -1 -18 4 0 13 -5 13 130 -9z m-2648 -28 c19 -21
52 -51 73 -67 22 -17 43 -34 46 -38 3 -5 14 -6 24 -2 13 5 16 4 11 -4 -4 -7
-15 -12 -24 -12 -13 0 -12 -5 8 -20 23 -18 78 -40 195 -77 28 -9 65 -22 84
-30 19 -9 46 -13 65 -9 19 4 26 3 18 -3 -10 -6 -5 -11 19 -20 39 -14 42 -14
34 -1 -3 6 1 10 10 10 10 0 13 -5 9 -12 -5 -8 0 -9 14 -6 12 4 22 2 22 -3 0
-5 22 -9 50 -9 36 0 52 5 60 18 10 15 11 15 6 0 -4 -13 6 -19 47 -28 72 -16
277 -24 257 -11 -12 9 -9 11 13 11 15 0 27 -4 27 -8 0 -5 18 -9 41 -10 22 -1
38 2 35 7 -3 5 4 11 17 15 26 7 107 7 89 -1 -24 -9 -1 -23 41 -24 39 0 40 -1
17 -11 -14 -5 -41 -12 -60 -15 -19 -3 -37 -7 -40 -10 -11 -12 181 8 270 28
142 31 145 32 140 27 -7 -8 -131 -38 -220 -54 -115 -22 -471 -29 -620 -14 -69
8 -147 14 -175 15 -59 2 -121 13 -144 25 -9 5 -43 16 -76 25 -188 51 -410 170
-446 238 -7 12 4 5 26 -16 21 -20 42 -38 47 -38 4 -1 13 -2 18 -3 6 0 14 -6
18 -11 14 -21 61 -45 67 -35 3 6 1 10 -5 10 -6 0 -8 5 -4 12 4 6 3 9 -2 6 -5
-3 -18 -2 -29 3 l-20 8 20 1 20 1 -20 12 c-11 6 -22 12 -25 12 -12 1 -47 32
-62 56 -11 17 -13 30 -7 42 7 11 3 21 -13 36 -12 12 -17 21 -11 21 6 0 26 -17
45 -37z m3803 27 c-3 -5 -12 -10 -18 -10 -7 0 -6 4 3 10 19 12 23 12 15 0z
m400 -10 c-9 -15 -45 -32 -45 -22 0 5 10 14 23 20 29 14 29 14 22 2z m-4296
-32 c6 -18 7 -28 2 -23 -10 12 -25 55 -18 55 3 0 10 -15 16 -32z m162 15 c13
-16 12 -17 -3 -4 -17 13 -22 21 -14 21 2 0 10 -8 17 -17z m4385 -50 c-14 -26
-25 -45 -26 -41 0 12 43 98 48 94 2 -2 -8 -26 -22 -53z m-2636 -8 c-18 -19
-37 -32 -42 -29 -16 10 35 63 61 64 9 0 2 -14 -19 -35z m2393 -5 c-3 -11 -9
-20 -15 -20 -5 0 -4 9 2 20 6 11 12 20 14 20 2 0 2 -9 -1 -20z m-3504 -29 c57
-80 6 -100 -149 -57 -103 29 -140 43 -140 54 0 10 121 28 207 30 57 2 63 0 82
-27z m-524 1 c-3 -3 -11 0 -18 7 -9 10 -8 11 6 5 10 -3 15 -9 12 -12z m85 -32
c8 -5 11 -10 5 -10 -5 0 -17 5 -25 10 -8 5 -10 10 -5 10 6 0 17 -5 25 -10z
m90 -36 c14 -7 20 -13 14 -14 -6 0 -28 9 -50 20 -23 12 -29 18 -14 14 14 -4
36 -13 50 -20z m-150 6 c0 -5 -8 -10 -17 -10 -15 0 -16 2 -3 10 19 12 20 12
20 0z m2200 0 c8 -5 11 -10 5 -10 -5 0 -17 5 -25 10 -8 5 -10 10 -5 10 6 0 17
-5 25 -10z m-79 -75 c-6 -45 -9 -51 -10 -24 -1 40 10 110 16 94 1 -6 -1 -37
-6 -70z m2058 20 c-13 -19 -30 -35 -37 -35 -7 0 -3 10 11 23 13 12 27 31 30
41 4 10 10 16 14 13 3 -4 -5 -22 -18 -42z m-3921 14 c23 -7 40 -14 38 -16 -5
-5 -116 27 -116 33 0 3 8 3 18 0 9 -2 36 -10 60 -17z m6319 14 c-20 -2 -52 -2
-70 0 -17 2 0 4 38 4 39 0 53 -2 32 -4z m261 0 c-15 -2 -42 -2 -60 0 -18 2 -6
4 27 4 33 0 48 -2 33 -4z m-4450 -18 c1 -1 -10 -10 -25 -20 -15 -10 -23 -12
-16 -5 10 11 9 16 -5 27 -15 12 -13 13 13 7 17 -4 31 -8 33 -9z m3985 8 c-7
-2 -19 -2 -25 0 -7 3 -2 5 12 5 14 0 19 -2 13 -5z m605 0 c-16 -2 -40 -2 -55
0 -16 2 -3 4 27 4 30 0 43 -2 28 -4z m-689 -7 c-2 -2 -22 -6 -44 -9 -28 -5
-34 -4 -20 3 19 8 73 14 64 6z m799 -3 c-10 -2 -26 -2 -35 0 -10 3 -2 5 17 5
19 0 27 -2 18 -5z m79 -9 c-3 -3 -12 -4 -19 -1 -8 3 -5 6 6 6 11 1 17 -2 13
-5z m-1007 -14 c-14 -4 -34 -8 -45 -8 -16 0 -15 2 5 8 14 4 34 8 45 8 16 0 15
-2 -5 -8z m1135 -15 c50 -13 85 -24 78 -24 -16 -1 -193 40 -193 45 0 7 24 3
115 -21z m-6792 -15 c5 -4 -12 -5 -37 -3 -29 4 -46 2 -46 -5 0 -6 -9 -10 -20
-9 -18 1 -18 11 1 13 22 3 22 7 -1 14 -16 5 -2 6 35 3 33 -3 64 -9 68 -13z
m1377 5 c0 -8 -4 -15 -10 -15 -5 0 -10 7 -10 15 0 8 5 15 10 15 6 0 10 -7 10
-15z m1926 -37 c4 -7 -9 1 -29 16 -20 16 -37 30 -37 33 0 7 58 -36 66 -49z
m122 34 c9 -9 28 -33 41 -52 27 -39 21 -34 -34 28 -37 41 -42 59 -7 24z m2161
14 c-2 -2 -17 -6 -34 -10 -22 -5 -26 -4 -15 4 14 9 59 15 49 6z m1116 -35 c50
-16 105 -32 123 -36 17 -4 32 -11 32 -16 0 -5 -11 -4 -26 1 -14 6 -33 10 -42
10 -9 -1 21 -14 68 -29 47 -16 123 -43 168 -59 46 -17 91 -28 100 -25 12 3 13
2 4 -4 -9 -7 -2 -14 24 -26 21 -10 32 -12 28 -5 -5 8 -2 9 9 5 24 -9 21 0 -4
14 -17 8 -20 8 -14 -1 5 -8 3 -11 -5 -8 -13 4 -24 38 -13 38 14 0 122 -63 143
-84 43 -41 61 -66 47 -66 -9 0 -9 -2 0 -8 20 -13 102 -142 90 -142 -2 0 -18
23 -36 51 -118 181 -559 354 -991 389 -92 7 -93 7 -25 8 39 1 100 -2 138 -7
88 -9 85 9 -4 26 l-64 12 80 -5 c48 -3 116 -16 170 -33z m-5908 23 c-3 -3 -12
-4 -19 -1 -8 3 -5 6 6 6 11 1 17 -2 13 -5z m-637 -24 c64 -9 64 -9 -22 -5 -48
2 -95 9 -105 14 -14 9 -9 10 22 5 22 -3 69 -9 105 -14z m1297 5 c0 -8 -7 -15
-15 -15 -12 0 -12 3 -2 15 7 8 13 15 15 15 1 0 2 -7 2 -15z m4785 8 c-40 -2
-103 -2 -140 0 -37 2 -4 3 73 3 77 0 107 -2 67 -3z m-5595 -9 c-3 -3 -12 -4
-19 -1 -8 3 -5 6 6 6 11 1 17 -2 13 -5z m163 -3 c-8 -5 -42 -12 -75 -15 l-60
-5 60 13 c33 7 67 14 75 14 13 1 13 0 0 -7z m1125 -3 c29 -13 30 -16 9 -46 -8
-12 -12 -27 -8 -34 5 -8 2 -9 -10 -5 -10 4 -20 7 -22 7 -3 0 -2 5 1 10 9 14
-9 12 -24 -2 -10 -11 -11 -10 -6 5 4 9 11 17 16 17 5 0 9 7 9 15 0 8 -5 15
-11 15 -8 0 -8 5 1 15 15 18 13 18 45 3z m4064 8 c-2 -2 -47 -6 -99 -8 -54 -3
-78 -2 -55 2 42 8 161 13 154 6z m918 -2 c-3 -3 -12 -4 -19 -1 -8 3 -5 6 6 6
11 1 17 -2 13 -5z m-6384 -11 c-7 -2 -21 -2 -30 0 -10 3 -4 5 12 5 17 0 24 -2
18 -5z m-115 -10 c-21 -2 -55 -2 -75 0 -21 2 -4 4 37 4 41 0 58 -2 38 -4z
m3229 -115 c-2 -24 -4 -5 -4 42 0 47 2 66 4 43 2 -24 2 -62 0 -85z m1748 112
c-27 -12 -43 -12 -25 0 8 5 22 9 30 9 10 0 8 -3 -5 -9z m398 3 c-7 -2 -21 -2
-30 0 -10 3 -4 5 12 5 17 0 24 -2 18 -5z m1217 -8 c19 -7 28 -14 20 -14 -8 0
-28 6 -45 14 -39 17 -21 18 25 0z m-6435 -5 c3 -5 1 -10 -4 -10 -6 0 -11 5
-11 10 0 6 2 10 4 10 3 0 8 -4 11 -10z m375 0 c-8 -5 -19 -10 -25 -10 -5 0 -3
5 5 10 8 5 20 10 25 10 6 0 3 -5 -5 -10z m523 3 c-7 -2 -19 -2 -25 0 -7 3 -2
5 12 5 14 0 19 -2 13 -5z m69 -5 c-9 -9 -15 -9 -24 0 -9 9 -7 12 12 12 19 0
21 -3 12 -12z m91 -8 c3 -11 1 -18 -4 -14 -5 3 -9 12 -9 20 0 20 7 17 13 -6z
m4082 10 c-16 -4 -39 -8 -50 -8 -16 0 -15 2 5 8 14 4 36 8 50 8 22 0 22 -1 -5
-8z m-5568 -6 c-3 -3 -12 -4 -19 -1 -8 3 -5 6 6 6 11 1 17 -2 13 -5z m1053
-14 c11 -11 20 -28 20 -39 0 -10 8 -25 18 -32 15 -13 16 -12 3 4 -8 10 -9 17
-3 17 6 0 14 -5 17 -11 5 -7 16 -2 33 13 21 19 20 16 -7 -19 -22 -29 -37 -40
-49 -37 -13 5 -14 4 -3 -4 8 -5 11 -18 7 -29 -4 -11 -7 -161 -8 -334 -1 -244
-4 -318 -15 -334 -16 -24 -17 -87 -1 -103 7 -7 14 -74 19 -179 7 -175 12 -200
49 -273 20 -40 50 -79 50 -66 0 3 12 -7 28 -21 30 -28 117 -73 143 -73 9 0 22
7 29 15 9 11 9 15 1 15 -7 0 -9 5 -5 12 6 9 9 9 12 0 3 -10 7 -10 18 -1 8 6
11 16 8 21 -4 6 1 8 13 4 12 -4 25 -1 33 9 7 8 8 15 3 15 -5 0 -18 7 -29 15
-15 13 -12 12 17 -1 l37 -17 -52 -42 c-28 -23 -50 -47 -49 -53 1 -5 -5 -16
-15 -24 -15 -13 -24 -13 -77 3 -63 19 -105 52 -157 123 -15 21 -28 48 -28 58
0 10 -9 37 -20 58 -17 33 -20 60 -21 156 -1 66 -5 111 -9 103 -5 -7 -6 -17 -3
-22 7 -12 -6 -57 -16 -57 -16 0 -7 102 9 109 23 9 23 40 0 110 -24 76 -26 121
-6 121 21 0 30 20 17 33 -6 6 -11 16 -11 21 0 6 5 4 10 -4 8 -11 9 -8 6 15 -2
17 -5 46 -5 66 -1 28 -6 38 -21 42 -20 5 -29 -8 -10 -15 6 -2 13 -21 15 -43
l5 -40 -27 27 c-15 15 -24 31 -20 34 4 4 14 -1 22 -12 8 -10 15 -14 15 -7 0 7
-12 25 -27 40 -19 19 -27 37 -25 53 5 33 -15 14 -21 -20 -3 -17 -5 -11 -6 16
0 25 -9 52 -22 68 -24 30 -11 36 16 6 10 -11 20 -18 23 -15 3 3 11 0 18 -6 27
-22 34 2 32 121 -1 85 2 123 11 134 11 14 11 16 -3 16 -9 0 -16 4 -16 10 0 5
7 7 15 4 11 -4 15 0 15 16 0 16 -4 20 -15 16 -19 -7 -19 11 -1 30 11 10 15 11
18 2 3 -7 10 2 16 20 9 26 8 32 -4 32 -7 0 -14 8 -14 19 0 12 -13 24 -37 34
-35 15 -23 15 30 1 21 -7 22 -6 4 14 -13 14 -15 21 -6 24 18 6 3 37 -23 48
-18 7 -19 9 -5 9 9 1 26 -8 37 -19z m160 10 c8 6 26 9 40 9 21 -1 20 -2 -7 -9
-18 -4 -40 -13 -48 -20 -13 -10 -15 -9 -15 11 0 15 3 19 8 12 5 -8 13 -9 22
-3z m-640 -10 c0 -5 -14 -10 -31 -10 -17 0 -28 4 -24 10 3 6 17 10 31 10 13 0
24 -4 24 -10z m4857 -6 c-3 -3 -12 -4 -19 -1 -8 3 -5 6 6 6 11 1 17 -2 13 -5z
m1408 -37 c6 -7 3 -7 -10 -2 -11 4 -28 10 -37 12 -10 3 -18 9 -18 14 0 9 49
-9 65 -24z m-7339 5 c-10 -2 -22 0 -28 6 -6 6 0 7 19 4 21 -5 23 -7 9 -10z
m2103 2 c9 -8 -45 -2 -64 6 -14 7 -8 8 20 3 22 -3 42 -7 44 -9z m3758 10 c-3
-3 -12 -4 -19 -1 -8 3 -5 6 6 6 11 1 17 -2 13 -5z m-5697 -24 c24 -8 24 -8 -7
-9 -17 -1 -35 4 -38 9 -7 11 9 11 45 0z m1977 4 c-3 -3 -12 -4 -19 -1 -8 3 -5
6 6 6 11 1 17 -2 13 -5z m5253 -15 c0 -6 -4 -7 -10 -4 -5 3 -10 11 -10 16 0 6
5 7 10 4 6 -3 10 -11 10 -16z m-5110 -4 c14 -3 52 -10 85 -16 33 -5 118 -21
188 -35 71 -14 135 -23 142 -20 8 3 15 1 17 -3 2 -5 23 -11 48 -15 25 -3 39
-3 33 0 -7 3 -13 10 -13 15 0 6 5 7 11 3 7 -4 9 1 7 12 -3 13 -11 18 -26 17
-14 -2 -21 1 -17 7 9 14 55 12 56 -2 1 -7 0 -23 0 -35 -3 -26 3 -29 54 -37 35
-6 37 -5 15 5 -15 7 -20 13 -12 16 6 3 12 13 12 22 0 26 49 16 52 -10 0 -11 1
-25 2 -31 1 -7 26 -18 56 -25 l55 -12 -65 5 c-36 3 -177 27 -315 54 -137 27
-311 61 -385 74 -74 14 -110 24 -80 21 30 -2 66 -7 80 -10z m3225 3 c-11 -6
-53 -30 -93 -55 -41 -24 -71 -39 -67 -33 8 13 156 100 170 100 6 -1 1 -6 -10
-12z m-592 -12 c3 -8 -21 -35 -61 -68 -79 -64 -123 -124 -134 -181 -7 -39 -7
-38 -3 11 3 41 1 52 -11 52 -12 0 -11 7 5 38 22 42 76 96 136 136 45 29 60 32
68 12z m2557 -6 c12 -8 11 -10 -7 -10 -12 0 -25 5 -28 10 -8 13 15 13 35 0z
m250 -55 c0 -3 -18 4 -40 15 -22 11 -40 23 -40 25 0 3 18 -4 40 -15 22 -11 40
-23 40 -25z m-3833 -27 c-3 -7 -5 -2 -5 12 0 14 2 19 5 13 2 -7 2 -19 0 -25z
m1423 -23 c-13 -14 -25 -39 -27 -56 -3 -29 -2 -30 14 -18 17 14 16 11 -48 -97
-17 -28 -27 -35 -45 -31 -21 4 -23 2 -12 -12 7 -9 19 -22 26 -29 6 -7 12 -19
12 -25 0 -7 -4 -6 -10 3 -5 8 -10 11 -10 5 -1 -5 -6 1 -11 14 -8 20 -11 22
-26 10 -15 -13 -16 -11 -10 12 11 45 48 120 56 114 5 -2 14 2 21 10 6 7 17 12
23 9 7 -2 12 6 12 20 0 24 0 24 -27 -7 -15 -18 -27 -27 -27 -22 -1 11 97 125
107 125 3 0 -5 -11 -18 -25z m-2081 -1 c1 -1 0 -8 -4 -14 -6 -9 -10 -9 -16 1
-7 11 -9 11 -9 1 0 -7 -4 -10 -10 -7 -5 3 -10 13 -10 21 0 11 6 13 23 8 12 -3
24 -8 26 -10z m116 6 c-3 -5 -17 -10 -31 -10 -13 0 -24 5 -24 10 0 6 14 10 31
10 17 0 28 -4 24 -10z m1998 -14 c3 -8 -4 -22 -16 -33 -16 -13 -18 -14 -9 -2
7 9 12 21 11 25 -4 25 6 32 14 10z m-2198 -37 c13 -6 5 -6 -20 -2 -22 3 -49
10 -60 14 -13 6 -5 6 20 2 22 -3 49 -10 60 -14z m103 -47 c12 -8 32 -29 44
-46 l21 -31 -33 33 c-19 19 -51 42 -72 53 -21 11 -38 21 -38 24 0 6 48 -15 78
-33z m3371 34 c-2 -2 -31 -6 -64 -9 -39 -4 -50 -3 -30 2 31 9 102 14 94 7z
m-184 -35 c-33 -10 -69 -21 -80 -25 l-20 -8 20 13 c31 20 87 38 115 38 14 0
-1 -8 -35 -18z m292 13 c-3 -3 -12 -4 -19 -1 -8 3 -5 6 6 6 11 1 17 -2 13 -5z
m-5330 -141 c-2 -27 -3 -5 -3 47 0 52 1 74 3 48 2 -27 2 -69 0 -95z m4933 90
c0 -5 -13 -17 -28 -27 l-27 -19 24 26 c26 28 31 32 31 20z m-3894 -83 c93 -16
223 -39 289 -51 339 -58 374 -69 397 -128 16 -42 23 -498 8 -576 -12 -62 -15
-67 -49 -81 -25 -11 -32 -17 -22 -23 10 -6 9 -10 -4 -15 -25 -9 -55 -7 -55 4
0 6 8 10 18 11 9 0 12 3 5 5 -6 3 -23 -2 -37 -11 -14 -9 -33 -14 -43 -11 -20
6 -187 38 -478 91 -264 48 -286 55 -307 91 -16 27 -18 65 -18 353 -1 322 -1
323 21 347 30 32 66 31 275 -6z m3841 -2 c-3 -7 -5 -2 -5 12 0 14 2 19 5 13 2
-7 2 -19 0 -25z m-2928 -22 c6 -25 10 -73 10 -108 l-2 -63 -8 80 c-4 44 -12
92 -18 108 -6 15 -7 27 -2 27 5 0 14 -20 20 -44z m3011 13 c6 -11 32 -29 58
-40 40 -17 65 -20 169 -18 67 2 119 7 117 11 -3 4 2 8 10 8 22 0 9 -27 -15
-33 -11 -3 -45 -3 -75 0 -39 4 -54 2 -54 -7 0 -7 7 -10 17 -6 15 6 15 5 -1
-13 -14 -16 -30 -20 -77 -19 -32 0 -59 4 -59 7 0 3 -15 7 -33 8 -46 3 -103 31
-117 58 -15 28 -6 59 15 51 8 -3 15 -1 15 4 0 17 19 11 30 -11z m1449 -53 c1
-42 -5 -29 -12 24 -4 30 -3 38 3 25 5 -11 9 -33 9 -49z m-2592 -89 c14 -49 28
-60 36 -29 4 13 5 11 6 -5 0 -13 -3 -23 -8 -23 -16 0 -23 -40 -11 -55 17 -21
41 3 28 28 -6 12 -6 23 1 31 6 7 8 16 4 19 -3 4 0 13 7 22 7 8 10 22 6 30 -4
10 -2 14 5 9 6 -3 9 -19 5 -35 -4 -23 -2 -29 12 -29 13 -1 12 -4 -6 -14 -21
-11 -22 -14 -8 -25 9 -8 26 -11 41 -7 14 4 25 2 25 -4 0 -5 -8 -10 -17 -10
-21 0 2 -23 81 -83 48 -37 73 -47 60 -24 -4 7 -3 9 2 4 5 -5 8 -12 7 -15 -3
-11 29 -42 42 -42 7 0 16 -7 19 -16 4 -9 9 -14 13 -11 3 4 11 0 17 -8 6 -8 48
-28 94 -45 88 -32 107 -36 97 -21 -3 5 11 5 32 -1 50 -13 58 -23 13 -15 -35 6
-35 6 -10 -8 14 -8 32 -14 42 -15 9 0 49 -11 90 -25 98 -34 198 -58 205 -51 4
3 1 6 -5 6 -7 0 -12 5 -12 10 0 6 27 10 60 10 50 0 61 -3 71 -21 8 -15 8 -19
0 -15 -6 4 -11 4 -11 -1 0 -4 11 -13 25 -19 22 -11 24 -10 22 8 -2 11 -10 24
-18 29 -10 6 -4 9 21 9 23 0 30 -3 22 -9 -11 -7 -10 -10 3 -15 9 -3 24 -6 32
-6 13 0 13 4 -2 28 -18 27 -18 27 2 10 11 -10 27 -18 36 -18 9 0 17 -3 17 -7
0 -5 48 -7 106 -5 69 2 104 0 100 -7 -4 -5 2 -10 11 -10 10 0 37 -1 60 -1 23
-1 51 4 62 9 31 17 36 13 12 -8 -15 -13 -18 -20 -9 -24 7 -2 10 -8 6 -12 -4
-4 -14 -2 -23 5 -10 8 -15 9 -15 1 0 -10 5 -12 37 -15 7 -1 12 -6 10 -11 -6
-27 -552 6 -811 48 -10 2 -25 12 -32 22 -13 17 -19 14 -15 -7 1 -11 10 -13
-146 41 -178 62 -210 78 -228 110 -8 15 -14 20 -15 11 0 -12 -2 -12 -9 -2 -4
8 -12 13 -17 13 -37 -3 -122 59 -221 162 -69 71 -115 147 -112 185 1 15 2 15
6 0 2 -10 9 -18 15 -18 6 0 8 9 5 21 -11 43 17 11 30 -34z m1456 36 c-13 -2
-35 -2 -50 0 -16 2 -5 4 22 4 28 0 40 -2 28 -4z m-3146 -65 c-3 -8 -6 -5 -6 6
-1 11 2 17 5 13 3 -3 4 -12 1 -19z m2508 3 c52 -10 38 -15 -114 -41 -141 -23
-249 -27 -216 -8 80 46 230 69 330 49z m-4624 -28 c13 -16 12 -17 -3 -4 -10 7
-18 15 -18 17 0 8 8 3 21 -13z m4009 -49 c0 -11 -49 48 -50 59 0 5 11 -5 25
-21 14 -17 25 -34 25 -38z m-1993 24 c-3 -7 -5 -2 -5 12 0 14 2 19 5 13 2 -7
2 -19 0 -25z m3794 -16 c103 -35 249 -96 249 -105 0 -12 -99 -54 -182 -77
l-70 -19 -63 42 c-34 23 -86 55 -115 70 -28 15 -50 33 -47 40 3 11 136 65 163
66 6 1 35 -7 65 -17z m-5820 -43 l-9 -44 -1 41 c-1 22 2 44 6 47 12 12 13 1 4
-44z m76 29 c4 -7 8 -20 8 -28 0 -8 11 -20 25 -27 17 -9 20 -13 8 -13 -9 0
-19 4 -23 10 -3 5 -12 7 -20 4 -9 -4 -14 1 -13 13 0 10 -3 26 -7 36 -8 20 10
24 22 5z m1883 -223 c1 -127 -1 -324 -4 -440 -3 -115 -3 -202 0 -192 3 9 10
15 15 11 5 -3 6 -10 3 -16 -4 -6 -8 -20 -9 -32 -1 -11 -3 -25 -4 -30 0 -4 -7
-6 -15 -3 -8 3 -16 -2 -19 -14 -3 -12 0 -22 9 -26 11 -4 11 -7 -1 -19 -7 -8
-22 -14 -32 -14 -14 0 -15 -2 -4 -9 7 -5 10 -14 7 -20 -4 -6 -12 -8 -18 -5 -7
5 -9 1 -5 -9 4 -10 0 -18 -12 -22 -11 -3 -29 -21 -42 -39 -34 -50 -114 -69
-199 -47 -19 5 -53 12 -74 16 -37 6 -38 5 -22 -10 9 -10 14 -20 11 -23 -15
-15 -40 32 -40 76 0 42 -3 47 -23 50 -27 4 -65 -26 -58 -45 8 -21 -35 -16
-240 26 -104 22 -234 48 -289 60 -55 11 -156 32 -223 46 -68 15 -130 24 -138
21 -17 -7 -17 -6 1 32 9 17 30 40 48 51 18 11 42 29 54 41 l23 21 297 -56
c164 -31 377 -71 473 -90 96 -19 207 -40 245 -46 39 -6 74 -15 79 -19 5 -5 16
-6 25 -3 9 2 3 -7 -12 -21 -15 -14 -39 -26 -53 -26 -13 0 -40 -7 -60 -15 -32
-13 -34 -17 -24 -36 13 -23 40 -22 120 1 68 20 161 128 178 208 8 36 20 519
22 876 0 16 2 27 4 25 3 -2 5 -108 6 -234z m2091 208 c13 -16 12 -17 -3 -4
-10 7 -18 15 -18 17 0 8 8 3 21 -13z m109 -79 c0 -7 -58 25 -65 36 -3 5 10 1
29 -11 20 -12 36 -23 36 -25z m-4102 -24 c-13 -11 -31 -22 -40 -25 -10 -4 -18
-19 -21 -38 l-4 -32 -1 31 c-2 25 5 37 33 58 19 15 35 35 35 44 1 15 2 15 11
-1 8 -14 6 -22 -13 -37z m4137 2 c-3 -3 -11 0 -18 7 -9 10 -8 11 6 5 10 -3 15
-9 12 -12z m85 -32 c19 -11 31 -19 27 -20 -12 0 -77 28 -77 34 0 10 14 6 50
-14z m-93 4 c-3 -3 -12 -4 -19 -1 -8 3 -5 6 6 6 11 1 17 -2 13 -5z m1928 -34
c-3 -5 -12 -10 -18 -10 -7 0 -6 4 3 10 19 12 23 12 15 0z m-3985 -12 c0 -5
-13 -27 -30 -50 -57 -78 -24 -106 53 -46 29 24 39 28 34 15 -4 -10 -7 -40 -7
-65 0 -26 -4 -42 -8 -35 -4 7 -13 9 -21 4 -7 -5 -11 -13 -7 -19 3 -6 -2 -12
-11 -15 -14 -3 -13 -6 9 -15 31 -13 34 -24 43 -133 5 -64 3 -80 -11 -94 -15
-14 -16 -22 -6 -49 8 -21 11 -96 10 -212 -1 -98 -3 -158 -5 -131 -4 41 -6 45
-19 33 -17 -18 -18 -30 -1 -20 6 4 3 -2 -7 -14 -11 -12 -15 -22 -10 -22 5 0 0
-7 -11 -16 -16 -12 -18 -18 -7 -34 6 -10 9 -26 6 -35 -7 -17 -54 -21 -54 -4 0
5 5 7 10 4 6 -4 8 7 5 30 -3 24 -1 33 7 29 7 -5 9 3 6 25 -3 23 -1 31 11 31
11 0 12 3 4 11 -17 17 -4 51 18 44 11 -4 19 -2 19 3 0 6 -5 12 -11 14 -6 2
-13 41 -16 93 -4 72 -9 94 -24 108 -22 20 -21 42 2 42 20 0 28 58 18 140 -9
74 -24 95 -65 95 -17 0 -25 9 -35 38 -6 20 -16 42 -21 49 -6 7 -5 14 2 18 8 5
4 15 -11 31 -13 14 -17 24 -10 24 7 0 9 5 6 10 -8 12 -3 13 29 0 22 -8 27 -6
40 20 13 28 13 30 -5 30 -10 0 -19 5 -19 10 0 6 5 10 10 10 6 0 10 14 10 30 0
30 2 31 40 28 22 -1 40 -6 40 -10z m2667 -15 c4 -12 -36 -25 -50 -16 -12 7 23
35 37 30 5 -2 11 -8 13 -14z m1263 2 c-14 -8 -29 -14 -35 -14 -5 0 1 6 15 14
14 8 30 14 35 14 6 0 -1 -6 -15 -14z m-1729 -20 c19 -8 29 -14 23 -15 -7 0
-27 7 -45 15 -19 8 -29 14 -23 15 7 0 27 -7 45 -15z m-4333 -67 l-1 -73 -6 65
c-4 36 -5 68 -3 73 9 20 12 0 10 -65z m4517 62 c25 -11 -1 -11 -35 0 -20 6
-21 8 -5 8 11 0 29 -3 40 -8z m1455 -10 c-8 -5 -22 -9 -30 -9 -10 0 -8 3 5 9
27 12 43 12 25 0z m-66 -20 c-35 -14 -215 -49 -284 -54 -44 -4 -29 1 50 14 63
11 140 26 170 34 62 16 96 19 64 6z m-1261 -7 c-7 -2 -21 -2 -30 0 -10 3 -4 5
12 5 17 0 24 -2 18 -5z m50 -10 c-7 -2 -19 -2 -25 0 -7 3 -2 5 12 5 14 0 19
-2 13 -5z m182 -20 c28 -3 52 -8 55 -10 8 -8 -168 8 -198 18 -27 9 8 7 143 -8z
m987 -28 c-85 -31 -135 -40 -130 -24 5 15 57 31 76 24 6 -2 12 0 12 5 0 8 27
13 90 18 8 0 -14 -10 -48 -23z m-895 9 c-3 -3 -12 -4 -19 -1 -8 3 -5 6 6 6 11
1 17 -2 13 -5z m-312 -14 c13 -6 15 -9 5 -9 -8 0 -22 4 -30 9 -18 12 -2 12 25
0z m878 3 c-13 -2 -35 -2 -50 0 -16 2 -5 4 22 4 28 0 40 -2 28 -4z m162 -13
c-11 -5 -33 -8 -50 -8 l-30 0 30 8 c17 4 39 8 50 8 l20 1 -20 -9z m-357 -27
c-10 -2 -26 -2 -35 0 -10 3 -2 5 17 5 19 0 27 -2 18 -5z m-5341 -170 c-2 -32
-3 -6 -3 57 0 63 1 89 3 58 2 -32 2 -84 0 -115z m5612 162 c-8 -7 -149 -11
-149 -4 0 4 34 7 77 8 42 0 74 -1 72 -4z m-5289 -39 c0 -3 -4 -8 -10 -11 -5
-3 -10 -1 -10 4 0 6 5 11 10 11 6 0 10 -2 10 -4z m5423 -3 c-7 -2 -19 -2 -25
0 -7 3 -2 5 12 5 14 0 19 -2 13 -5z m-5466 -27 c-22 -17 -22 -27 0 -19 11 4
14 3 9 -5 -11 -18 -45 -15 -42 4 3 19 36 47 45 38 3 -3 -2 -11 -12 -18z m4480
-32 c-3 -3 -12 -4 -19 -1 -8 3 -5 6 6 6 11 1 17 -2 13 -5z m-4370 -66 c-3 -8
-6 -5 -6 6 -1 11 2 17 5 13 3 -3 4 -12 1 -19z m-277 -13 c14 -19 14 -19 -2 -6
-10 7 -18 18 -18 24 0 6 1 8 3 6 1 -2 9 -13 17 -24z m235 15 c-11 -5 -27 -9
-35 -9 -9 0 -8 4 5 9 11 5 27 9 35 9 9 0 8 -4 -5 -9z m-59 -144 c9 -26 13 -50
10 -53 -7 -7 -34 92 -40 147 l-5 45 10 -45 c6 -25 17 -67 25 -94z m1759 95
c-3 -3 5 -11 17 -19 13 -7 15 -11 6 -8 -9 2 -19 -1 -21 -9 -4 -8 -20 -13 -43
-12 l-38 1 37 16 c25 11 33 20 26 27 -6 6 -5 10 6 10 8 0 13 -3 10 -6z m-2015
-161 c6 -11 8 -20 5 -20 -11 0 -35 69 -34 97 1 21 3 18 9 -14 5 -23 14 -51 20
-63z m421 73 c13 -16 12 -17 -3 -4 -17 13 -22 21 -14 21 2 0 10 -8 17 -17z
m-98 -103 c9 0 17 -4 17 -9 0 -15 -38 0 -57 22 -18 22 -18 22 3 5 11 -10 28
-18 37 -18z m-293 -20 c6 -11 8 -20 6 -20 -3 0 -10 9 -16 20 -6 11 -8 20 -6
20 3 0 10 -9 16 -20z m1950 -74 c0 -2 -3 -12 -6 -20 -5 -13 -9 -14 -20 -5 -16
13 -9 29 12 29 8 0 14 -2 14 -4z m-1850 -71 c13 -14 21 -25 18 -25 -2 0 -15
11 -28 25 -13 14 -21 25 -18 25 2 0 15 -11 28 -25z m61 -62 c13 -16 12 -17 -3
-4 -17 13 -22 21 -14 21 2 0 10 -8 17 -17z m159 -54 c36 -9 59 -18 51 -18 -19
-1 -133 29 -151 40 -11 7 -8 8 10 3 14 -4 54 -15 90 -25z m1673 -40 c-29 -12
-33 -10 -33 11 0 17 3 18 26 8 23 -11 24 -13 7 -19z m104 -41 c-20 -45 -109
-142 -165 -179 l-47 -30 40 33 c77 65 145 143 162 187 9 24 19 39 20 34 2 -6
-2 -26 -10 -45z m-1567 32 c20 -6 21 -8 5 -8 -11 0 -31 4 -45 8 -20 6 -21 8
-5 8 11 0 31 -4 45 -8z m57 -16 c-3 -3 -12 -4 -19 -1 -8 3 -5 6 6 6 11 1 17
-2 13 -5z m783 -2 c0 -4 -9 -13 -19 -19 -16 -10 -18 -9 -14 8 5 18 33 28 33
11z m-737 -9 c-7 -2 -19 -2 -25 0 -7 3 -2 5 12 5 14 0 19 -2 13 -5z m102 -18
c28 -7 41 -13 30 -13 -11 0 -42 6 -70 13 -27 7 -41 13 -30 13 11 0 43 -6 70
-13z m718 -94 c10 -7 17 -18 17 -23 0 -19 -29 13 -55 59 -14 25 -25 53 -25 62
0 9 11 -6 24 -34 12 -27 30 -56 39 -64z m512 99 c4 -6 10 -8 14 -6 4 3 8 -10
9 -29 1 -24 -4 -35 -16 -39 -9 -3 -5 -4 10 -2 34 4 28 -10 -8 -17 -17 -3 -27
0 -31 10 -4 11 -8 11 -13 3 -10 -16 -72 -18 -76 -2 -1 7 0 8 3 2 9 -19 44 -10
71 17 15 15 31 27 35 25 4 -1 3 7 -3 18 -20 37 -81 22 -108 -25 -7 -13 -11
-15 -12 -6 0 29 42 61 81 61 21 0 41 -5 44 -10z m-225 -14 c0 -2 -9 -6 -20 -9
-11 -3 -18 -1 -14 4 5 9 34 13 34 5z m-923 -12 c-3 -3 -12 -4 -19 -1 -8 3 -5
6 6 6 11 1 17 -2 13 -5z m40 -10 c-3 -3 -12 -4 -19 -1 -8 3 -5 6 6 6 11 1 17
-2 13 -5z m648 -24 c9 -16 12 -30 7 -30 -8 0 -32 42 -32 55 0 13 11 2 25 -25z
m-602 13 c-7 -2 -19 -2 -25 0 -7 3 -2 5 12 5 14 0 19 -2 13 -5z m44 -9 c-3 -3
-12 -4 -19 -1 -8 3 -5 6 6 6 11 1 17 -2 13 -5z m100 -20 c-3 -3 -12 -4 -19 -1
-8 3 -5 6 6 6 11 1 17 -2 13 -5z m46 -11 c-7 -2 -19 -2 -25 0 -7 3 -2 5 12 5
14 0 19 -2 13 -5z m44 -9 c-3 -3 -12 -4 -19 -1 -8 3 -5 6 6 6 11 1 17 -2 13
-5z m60 -10 c-3 -3 -12 -4 -19 -1 -8 3 -5 6 6 6 11 1 17 -2 13 -5z m715 -25
c-20 -21 -22 -21 -38 -4 -17 17 -17 17 3 11 13 -4 25 -1 33 9 7 9 15 13 17 11
3 -3 -4 -15 -15 -27z m-518 -15 c71 -15 125 -29 119 -31 -12 -4 -295 56 -303
64 -7 7 32 0 184 -33z m236 -50 c138 -33 159 -35 197 -19 20 9 38 14 40 11 2
-2 -15 -11 -37 -20 -35 -14 -51 -15 -98 -6 -89 17 -209 48 -187 49 11 0 49 -6
85 -15z m1584 -104 c63 -76 60 -204 -7 -286 -53 -64 -141 -82 -222 -45 -64 29
-79 53 -85 133 -3 38 -2 74 1 80 6 9 264 145 281 147 3 1 18 -13 32 -29z"/>
<path d="M5103 8833 c15 -2 37 -2 50 0 12 2 0 4 -28 4 -27 0 -38 -2 -22 -4z"/>
<path d="M4903 8823 c-13 -2 -23 -9 -23 -14 0 -6 5 -7 10 -4 6 3 10 2 10 -4 0
-5 -4 -13 -10 -16 -5 -3 -10 -10 -10 -16 0 -5 9 0 20 11 11 11 29 20 40 20 11
0 20 4 20 8 0 5 15 7 33 5 26 -3 28 -1 12 6 -21 10 -63 11 -102 4z"/>
<path d="M4840 8800 c-9 -6 -10 -10 -3 -10 6 0 15 5 18 10 8 12 4 12 -15 0z"/>
<path d="M4990 8795 c-30 -7 -63 -16 -72 -20 -20 -8 -24 -30 -8 -40 18 -11
182 -35 242 -35 73 0 197 26 219 46 13 12 18 12 21 3 3 -8 7 -6 12 6 4 11 4
16 0 12 -4 -4 -13 1 -19 10 -23 31 -287 43 -395 18z"/>
<path d="M5536 8747 c3 -10 9 -15 12 -12 3 3 0 11 -7 18 -10 9 -11 8 -5 -6z"/>
<path d="M5476 8734 c-9 -23 -8 -24 13 -24 28 0 33 14 11 28 -15 9 -19 8 -24
-4z"/>
<path d="M5361 8720 c-18 -11 0 -19 23 -10 16 5 17 8 4 12 -8 4 -21 3 -27 -2z"/>
<path d="M4938 8703 c7 -3 16 -2 19 1 4 3 -2 6 -13 5 -11 0 -14 -3 -6 -6z"/>
<path d="M5048 8683 c6 -2 18 -2 25 0 6 3 1 5 -13 5 -14 0 -19 -2 -12 -5z"/>
<path d="M5138 8683 c6 -2 18 -2 25 0 6 3 1 5 -13 5 -14 0 -19 -2 -12 -5z"/>
<path d="M5187 8674 c3 -9 8 -11 12 -6 3 6 17 12 31 15 19 3 16 5 -12 6 -30 1
-36 -2 -31 -15z"/>
<path d="M4734 7746 c11 -9 24 -16 30 -16 12 0 7 5 -24 19 -24 11 -24 11 -6
-3z"/>
<path d="M5140 7640 c0 -5 5 -10 11 -10 5 0 7 5 4 10 -3 6 -8 10 -11 10 -2 0
-4 -4 -4 -10z"/>
<path d="M4085 7410 c-13 -6 -15 -9 -5 -9 8 0 22 4 30 9 18 12 2 12 -25 0z"/>
<path d="M3860 7310 c-8 -5 -10 -10 -5 -10 6 0 17 5 25 10 8 5 11 10 5 10 -5
0 -17 -5 -25 -10z"/>
<path d="M3640 7214 l-25 -15 25 7 c14 3 29 10 35 15 15 14 -7 10 -35 -7z"/>
<path d="M3495 7150 c-3 -6 1 -7 9 -4 18 7 21 14 7 14 -6 0 -13 -4 -16 -10z"/>
<path d="M3313 6979 c-13 -13 -6 -42 8 -33 5 3 7 10 4 15 -4 5 -1 9 4 9 6 0
11 5 11 10 0 13 -13 13 -27 -1z"/>
<path d="M6578 7378 c5 -5 16 -8 23 -6 8 3 3 7 -10 11 -17 4 -21 3 -13 -5z"/>
<path d="M5546 6913 c-4 -9 9 -10 47 -6 68 8 69 10 8 14 -33 3 -52 0 -55 -8z"/>
<path d="M5670 6908 c0 -11 42 -10 60 2 11 8 5 10 -22 8 -21 -1 -38 -6 -38
-10z"/>
<path d="M5136 6841 c-4 -5 3 -7 14 -4 23 6 26 13 6 13 -8 0 -17 -4 -20 -9z"/>
<path d="M4411 6836 c2 -2 20 -6 39 -10 25 -4 31 -3 20 4 -14 9 -69 15 -59 6z"/>
<path d="M4528 6823 c6 -2 18 -2 25 0 6 3 1 5 -13 5 -14 0 -19 -2 -12 -5z"/>
<path d="M4200 6789 c52 -10 114 -23 138 -29 40 -9 119 -13 97 -4 -15 6 -305
54 -318 53 -7 -1 31 -10 83 -20z"/>
<path d="M4258 6753 c7 -3 16 -2 19 1 4 3 -2 6 -13 5 -11 0 -14 -3 -6 -6z"/>
<path d="M4468 6743 c7 -3 16 -2 19 1 4 3 -2 6 -13 5 -11 0 -14 -3 -6 -6z"/>
<path d="M4608 6713 c6 -2 18 -2 25 0 6 3 1 5 -13 5 -14 0 -19 -2 -12 -5z"/>
<path d="M4898 6678 c6 -6 18 -8 28 -6 14 3 12 5 -9 10 -19 3 -25 2 -19 -4z"/>
<path d="M4960 6660 c8 -5 33 -12 55 -16 22 -3 48 -10 57 -15 17 -9 106 -23
98 -15 -5 4 -208 56 -219 56 -3 0 1 -5 9 -10z"/>
<path d="M4875 6640 c-3 -5 -15 -10 -26 -10 -10 0 -19 -4 -19 -10 0 -6 9 -6
23 -1 12 4 28 6 35 4 6 -3 12 0 12 6 0 15 -18 23 -25 11z"/>
<path d="M5390 6599 c0 -5 5 -7 10 -4 6 3 10 8 10 11 0 2 -4 4 -10 4 -5 0 -10
-5 -10 -11z"/>
<path d="M3694 7119 c-3 -5 -2 -9 3 -9 4 0 1 -5 -7 -10 -13 -8 -12 -10 3 -10
9 0 17 -4 17 -10 0 -10 -14 -14 -38 -11 -19 3 -27 -29 -11 -43 15 -14 98 -40
105 -33 3 2 -9 10 -26 17 -16 7 -30 16 -30 21 0 5 -6 6 -14 3 -8 -3 -17 -1
-20 5 -6 9 66 7 82 -3 4 -2 23 -1 42 4 l35 8 -31 1 c-32 1 -44 15 -44 52 0 10
-3 20 -7 20 -34 6 -54 5 -59 -2z"/>
<path d="M3530 6910 c-11 -8 -7 -9 15 -4 37 8 45 14 19 14 -10 0 -26 -5 -34
-10z"/>
<path d="M3220 6385 c14 -8 36 -14 50 -14 18 0 12 4 -20 15 -56 17 -62 17 -30
-1z"/>
<path d="M3678 6283 c6 -2 18 -2 25 0 6 3 1 5 -13 5 -14 0 -19 -2 -12 -5z"/>
<path d="M3728 6273 c6 -2 18 -2 25 0 6 3 1 5 -13 5 -14 0 -19 -2 -12 -5z"/>
<path d="M3778 6263 c7 -3 16 -2 19 1 4 3 -2 6 -13 5 -11 0 -14 -3 -6 -6z"/>
<path d="M3840 6251 c41 -13 125 -22 115 -12 -6 5 -39 11 -75 14 -37 4 -54 3
-40 -2z"/>
<path d="M4380 6252 c0 -5 7 -9 15 -9 8 0 12 4 9 9 -3 4 -9 8 -15 8 -5 0 -9
-4 -9 -8z"/>
<path d="M4160 6229 c0 -5 5 -7 10 -4 6 3 10 8 10 11 0 2 -4 4 -10 4 -5 0 -10
-5 -10 -11z"/>
<path d="M4000 6226 c0 -2 14 -6 30 -8 17 -3 30 -1 30 4 0 4 -13 8 -30 8 -16
0 -30 -2 -30 -4z"/>
<path d="M4090 6220 c0 -6 7 -10 15 -10 8 0 15 2 15 4 0 2 -7 6 -15 10 -8 3
-15 1 -15 -4z"/>
<path d="M4658 6163 c7 -3 16 -2 19 1 4 3 -2 6 -13 5 -11 0 -14 -3 -6 -6z"/>
<path d="M2170 6075 c-7 -9 -8 -15 -2 -15 5 0 12 7 16 15 3 8 4 15 2 15 -2 0
-9 -7 -16 -15z"/>
<path d="M2218 6063 c7 -3 16 -2 19 1 4 3 -2 6 -13 5 -11 0 -14 -3 -6 -6z"/>
<path d="M2140 6040 c0 -13 11 -13 30 0 12 8 11 10 -7 10 -13 0 -23 -4 -23
-10z"/>
<path d="M2083 6033 c9 -2 25 -2 35 0 9 3 1 5 -18 5 -19 0 -27 -2 -17 -5z"/>
<path d="M8932 5922 c21 -9 38 -23 38 -29 0 -7 14 -20 30 -28 l31 -16 -23 35
c-13 20 -33 36 -48 39 -14 2 -34 7 -45 11 -11 3 -3 -2 17 -12z"/>
<path d="M2902 5510 c0 -19 2 -27 5 -17 2 9 2 25 0 35 -3 9 -5 1 -5 -18z"/>
<path d="M6225 6011 c-3 -5 -1 -12 5 -16 5 -3 10 1 10 9 0 18 -6 21 -15 7z"/>
<path d="M3530 5700 c-12 -8 -11 -10 7 -10 12 0 25 5 28 10 8 13 -15 13 -35 0z"/>
<path d="M3580 5694 c0 -8 5 -12 10 -9 6 4 8 11 5 16 -9 14 -15 11 -15 -7z"/>
<path d="M3507 5674 c-4 -4 -7 -26 -6 -48 l1 -41 9 39 c10 42 8 62 -4 50z"/>
<path d="M3795 5660 c27 -12 35 -12 35 0 0 6 -12 10 -27 9 -25 0 -26 -1 -8 -9z"/>
<path d="M3648 5557 c-14 -11 -17 -43 -23 -202 -4 -105 -5 -187 -1 -184 3 3 9
86 11 184 4 108 10 184 17 192 8 10 25 12 62 7 28 -4 49 -4 46 -2 -13 14 -96
17 -112 5z"/>
<path d="M3783 5543 c9 -2 23 -2 30 0 6 3 -1 5 -18 5 -16 0 -22 -2 -12 -5z"/>
<path d="M3843 5533 c9 -2 23 -2 30 0 6 3 -1 5 -18 5 -16 0 -22 -2 -12 -5z"/>
<path d="M3903 5523 c9 -2 23 -2 30 0 6 3 -1 5 -18 5 -16 0 -22 -2 -12 -5z"/>
<path d="M4010 5505 c30 -8 64 -14 75 -14 11 1 -5 7 -35 14 -30 8 -64 14 -75
14 -11 -1 5 -7 35 -14z"/>
<path d="M4377 5495 c-10 -14 -13 -25 -7 -25 6 0 13 7 16 15 4 8 13 15 21 15
8 0 11 5 8 10 -9 15 -18 12 -38 -15z"/>
<path d="M4434 5489 c-26 -9 -38 -25 -29 -39 5 -8 11 -7 21 1 10 8 14 8 14 0
0 -6 7 -11 15 -11 8 0 15 8 15 18 0 29 -13 40 -36 31z"/>
<path d="M3501 5474 c0 -11 3 -14 6 -6 3 7 2 16 -1 19 -3 4 -6 -2 -5 -13z"/>
<path d="M4118 5483 c6 -2 18 -2 25 0 6 3 1 5 -13 5 -14 0 -19 -2 -12 -5z"/>
<path d="M4180 5470 c14 -4 36 -8 50 -8 22 0 22 1 -5 8 -16 4 -39 8 -50 8 -16
0 -15 -2 5 -8z"/>
<path d="M4278 5453 c6 -2 18 -2 25 0 6 3 1 5 -13 5 -14 0 -19 -2 -12 -5z"/>
<path d="M4348 5448 c-3 -7 1 -31 8 -53 7 -22 13 -32 13 -23 1 9 -3 28 -9 43
-8 22 -7 27 13 35 22 9 22 9 1 9 -12 1 -24 -5 -26 -11z"/>
<path d="M3560 5239 c0 -5 5 -7 10 -4 6 3 10 8 10 11 0 2 -4 4 -10 4 -5 0 -10
-5 -10 -11z"/>
<path d="M4199 5163 c-13 -16 -12 -17 4 -4 16 13 21 21 13 21 -2 0 -10 -8 -17
-17z"/>
<path d="M4450 5170 c0 -5 5 -10 10 -10 6 0 10 5 10 10 0 6 -4 10 -10 10 -5 0
-10 -4 -10 -10z"/>
<path d="M3622 5140 c0 -14 2 -19 5 -12 2 6 2 18 0 25 -3 6 -5 1 -5 -13z"/>
<path d="M4164 5118 c-44 -51 -57 -68 -52 -68 3 0 22 20 42 45 38 46 45 63 10
23z"/>
<path d="M4354 5117 c-2 -7 -3 -60 -2 -118 l3 -104 5 118 c3 64 4 117 2 117
-1 0 -5 -6 -8 -13z"/>
<path d="M3645 5073 c15 -17 55 -29 173 -52 84 -17 162 -31 175 -30 12 0 -57
16 -153 35 -100 21 -184 43 -195 52 l-20 16 20 -21z"/>
<path d="M4048 5056 c-16 -19 -28 -38 -28 -42 0 -4 14 10 30 31 28 35 34 45
28 45 -2 0 -15 -16 -30 -34z"/>
<path d="M4260 4985 c-10 -19 -11 -30 -2 -47 11 -22 11 -22 6 5 -4 16 -1 34 6
42 7 9 11 18 8 20 -3 3 -11 -6 -18 -20z"/>
<path d="M4461 4994 c0 -11 3 -14 6 -6 3 7 2 16 -1 19 -3 4 -6 -2 -5 -13z"/>
<path d="M4118 4993 c7 -3 16 -2 19 1 4 3 -2 6 -13 5 -11 0 -14 -3 -6 -6z"/>
<path d="M7840 5600 c0 -5 5 -10 10 -10 6 0 10 5 10 10 0 6 -4 10 -10 10 -5 0
-10 -4 -10 -10z"/>
<path d="M6541 5514 c-1 -11 9 -29 21 -40 13 -11 17 -12 11 -3 -7 8 -17 26
-22 40 -9 22 -10 22 -10 3z"/>
<path d="M6610 5407 c0 -1 20 -20 45 -40 28 -24 42 -31 38 -20 -6 16 -5 16 10
4 9 -7 17 -10 17 -6 0 11 -30 33 -69 50 -34 15 -41 17 -41 12z m75 -37 c3 -5
2 -10 -4 -10 -5 0 -13 5 -16 10 -3 6 -2 10 4 10 5 0 13 -4 16 -10z"/>
<path d="M6900 5192 c0 -5 7 -13 16 -16 10 -4 14 -1 12 6 -5 15 -28 23 -28 10z"/>
<path d="M3550 4590 l25 -8 -27 -1 c-81 -3 -74 -39 9 -46 25 -3 30 0 26 13 -4
10 -2 13 5 8 7 -4 12 -16 12 -26 0 -16 3 -17 30 -7 35 13 40 37 8 37 -13 0
-30 5 -38 10 -12 8 -8 10 15 11 27 1 26 2 -10 10 -22 4 -49 8 -60 7 -16 0 -15
-2 5 -8z m17 -36 c-3 -3 -12 -4 -19 -1 -8 3 -5 6 6 6 11 1 17 -2 13 -5z"/>
<path d="M3670 4563 c16 -11 39 -16 68 -14 34 2 43 0 37 -11 -6 -10 -5 -11 5
-1 19 18 10 23 -48 25 -29 2 -52 6 -52 11 0 4 -8 7 -17 7 -14 0 -12 -4 7 -17z"/>
<path d="M3455 4550 c-3 -5 -16 -11 -28 -11 -14 -1 -16 -3 -6 -6 21 -5 65 12
51 21 -6 3 -13 2 -17 -4z"/>
<path d="M3358 4543 c6 -2 18 -2 25 0 6 3 1 5 -13 5 -14 0 -19 -2 -12 -5z"/>
<path d="M3868 4533 c7 -3 16 -2 19 1 4 3 -2 6 -13 5 -11 0 -14 -3 -6 -6z"/>
<path d="M3488 4513 c7 -3 16 -2 19 1 4 3 -2 6 -13 5 -11 0 -14 -3 -6 -6z"/>
<path d="M3528 4503 c6 -2 18 -2 25 0 6 3 1 5 -13 5 -14 0 -19 -2 -12 -5z"/>
<path d="M4018 4503 c7 -3 16 -2 19 1 4 3 -2 6 -13 5 -11 0 -14 -3 -6 -6z"/>
<path d="M3671 4476 c2 -2 18 -6 34 -10 22 -5 26 -4 15 4 -14 9 -59 15 -49 6z"/>
<path d="M4454 4415 c1 -8 6 -18 11 -22 4 -4 5 -2 1 5 -4 6 -2 12 4 12 6 0 8
5 5 10 -9 15 -24 12 -21 -5z"/>
<path d="M4038 4403 c7 -3 16 -2 19 1 4 3 -2 6 -13 5 -11 0 -14 -3 -6 -6z"/>
<path d="M4260 4402 c0 -5 7 -15 15 -22 8 -7 15 -8 15 -2 0 5 -7 15 -15 22 -8
7 -15 8 -15 2z"/>
<path d="M4316 4386 c3 -8 15 -12 27 -10 12 2 16 2 10 -2 -7 -3 -13 -10 -13
-15 0 -16 26 -10 44 10 10 11 28 21 40 23 11 2 -9 5 -46 5 -53 2 -66 -1 -62
-11z"/>
<path d="M4896 4552 c-3 -5 -1 -22 4 -38 8 -29 8 -29 9 9 1 36 -3 45 -13 29z"/>
</g>
</svg>
